<svg width="20" height="20" viewBox="0 0 20 20" fill="none" xmlns="http://www.w3.org/2000/svg">
<rect width="20" height="20" fill="#1E1E1E"/>
<g id="MyProfilePage">
<g id="Main-Section">
<rect width="1170" height="1830" transform="translate(-110 -531)" fill="black"/>
<g id="Frame 26">
<g id="Seach">
<path d="M-49.5 -3C-49.5 -8.2467 -45.2467 -12.5 -40 -12.5H122.5V32.5H-40C-45.2467 32.5 -49.5 28.2467 -49.5 23V-3Z" fill="#101012"/>
<path d="M-49.5 -3C-49.5 -8.2467 -45.2467 -12.5 -40 -12.5H122.5V32.5H-40C-45.2467 32.5 -49.5 28.2467 -49.5 23V-3Z" stroke="#101012"/>
<g id="Linear / Video, Audio, Sound / Gallery" clip-path="url(#clip0_0_1)">
<path id="Vector" d="M1.66663 9.99984C1.66663 6.07147 1.66663 4.10728 2.88701 2.88689C4.1074 1.6665 6.07159 1.6665 9.99996 1.6665C13.9283 1.6665 15.8925 1.6665 17.1129 2.88689C18.3333 4.10728 18.3333 6.07147 18.3333 9.99984C18.3333 13.9282 18.3333 15.8924 17.1129 17.1128C15.8925 18.3332 13.9283 18.3332 9.99996 18.3332C6.07159 18.3332 4.1074 18.3332 2.88701 17.1128C1.66663 15.8924 1.66663 13.9282 1.66663 9.99984Z" stroke="#877EFF" stroke-width="1.5"/>
<circle id="Vector_2" cx="13.3334" cy="6.66667" r="1.66667" stroke="#877EFF" stroke-width="1.5"/>
<path id="Vector_3" d="M1.66663 10.4169L3.12628 9.13976C3.88567 8.47529 5.03019 8.5134 5.7437 9.22691L9.31847 12.8017C9.89116 13.3744 10.7927 13.4525 11.4553 12.9868L11.7038 12.8121C12.6573 12.142 13.9474 12.2196 14.8137 12.9993L17.5 15.4169" stroke="#877EFF" stroke-width="1.5" stroke-linecap="round"/>
</g>
</g>
</g>
</g>
</g>
<defs>
<clipPath id="clip0_0_1">
<rect width="20" height="20" fill="white"/>
</clipPath>
</defs>
</svg>
