<svg width="20" height="20" viewBox="0 0 20 20" fill="none" xmlns="http://www.w3.org/2000/svg">
<g id="Outline / Video, Audio, Sound / Clapperboard Play">
<path id="Vector" fill-rule="evenodd" clip-rule="evenodd" d="M9.95227 1.0415H10.0479C11.9716 1.04149 13.4791 1.04148 14.6553 1.19963C15.8593 1.36149 16.8093 1.69928 17.555 2.44495C18.3006 3.19063 18.6384 4.14065 18.8003 5.34459C18.9584 6.52083 18.9584 8.02836 18.9584 9.95203V10.0476C18.9584 11.9713 18.9584 13.4788 18.8003 14.6551C18.6384 15.859 18.3006 16.809 17.555 17.5547C16.8093 18.3004 15.8593 18.6382 14.6553 18.8C13.4791 18.9582 11.9716 18.9582 10.0479 18.9582H9.95227C8.02861 18.9582 6.52108 18.9582 5.34484 18.8C4.14089 18.6382 3.19087 18.3004 2.4452 17.5547C1.69952 16.809 1.36174 15.859 1.19987 14.6551C1.04173 13.4788 1.04174 11.9713 1.04175 10.0477V9.95202C1.04174 8.02836 1.04173 6.52083 1.19987 5.34459C1.36174 4.14065 1.69952 3.19063 2.4452 2.44495C3.19087 1.69928 4.14089 1.36149 5.34484 1.19963C6.52107 1.04148 8.0286 1.04149 9.95227 1.0415ZM5.5114 2.43848C4.44606 2.58171 3.80379 2.85412 3.32908 3.32883C2.85436 3.80355 2.58195 4.44582 2.43872 5.51115C2.4161 5.67945 2.39695 5.85596 2.38076 6.0415H5.49032L7.8704 2.30138C6.93084 2.3158 6.16012 2.35126 5.5114 2.43848ZM9.33939 2.29177C9.3239 2.33541 9.30329 2.37799 9.27737 2.41872L6.97196 6.0415H10.907L13.2658 2.33476C12.3798 2.29209 11.3123 2.2915 10.0001 2.2915C9.7726 2.2915 9.55248 2.29152 9.33939 2.29177ZM14.6652 2.46399L12.3886 6.0415H17.6194C17.6032 5.85596 17.5841 5.67945 17.5614 5.51115C17.4182 4.44582 17.1458 3.80355 16.6711 3.32883C16.2232 2.88092 15.6261 2.61312 14.6652 2.46399ZM17.6861 7.2915H11.2594C11.2528 7.29161 11.2462 7.29161 11.2396 7.2915H5.84276C5.83614 7.29161 5.82952 7.29161 5.82289 7.2915H2.31402C2.29212 8.05961 2.29175 8.95163 2.29175 9.99984C2.29175 11.9817 2.29308 13.4052 2.43872 14.4885C2.58195 15.5539 2.85436 16.1961 3.32908 16.6708C3.80379 17.1456 4.44606 17.418 5.5114 17.5612C6.59471 17.7068 8.01823 17.7082 10.0001 17.7082C11.9819 17.7082 13.4055 17.7068 14.4888 17.5612C15.5541 17.418 16.1964 17.1456 16.6711 16.6708C17.1458 16.1961 17.4182 15.5539 17.5614 14.4885C17.7071 13.4052 17.7084 11.9817 17.7084 9.99984C17.7084 8.95163 17.708 8.05961 17.6861 7.2915ZM11.1403 9.9342L11.225 9.98884C11.7415 10.322 12.1887 10.6105 12.5004 10.8862C12.832 11.1795 13.1251 11.557 13.1251 12.0832C13.1251 12.6093 12.832 12.9869 12.5004 13.2801C12.1887 13.5558 11.7415 13.8443 11.225 14.1775L11.1403 14.2321C10.6185 14.5689 10.165 14.8615 9.78833 15.0288C9.3964 15.2028 8.89422 15.3282 8.41527 15.0239C7.96138 14.7355 7.82376 14.2434 7.76602 13.81C7.70836 13.3774 7.70838 12.806 7.70841 12.129V12.0374C7.70838 11.3604 7.70836 10.789 7.76602 10.3563C7.82376 9.92298 7.96138 9.4308 8.41527 9.14245C8.89422 8.83817 9.3964 8.96355 9.78833 9.13757C10.165 9.30482 10.6185 9.59747 11.1403 9.9342ZM9.04835 10.2096C9.04784 10.2089 9.05173 10.2079 9.06154 10.2085C9.05375 10.2105 9.04885 10.2102 9.04835 10.2096ZM9.081 10.2109C9.11447 10.2166 9.17665 10.2337 9.28107 10.28C9.55739 10.4027 9.92794 10.6396 10.5062 11.0127C11.0757 11.3801 11.4405 11.6176 11.6723 11.8226C11.8856 12.0113 11.8759 12.0775 11.8751 12.0828C11.8759 12.0882 11.8856 12.1551 11.6723 12.3438C11.4405 12.5487 11.0757 12.7862 10.5062 13.1537C9.92794 13.5268 9.55739 13.7636 9.28107 13.8863C9.17665 13.9327 9.11446 13.9498 9.081 13.9555C9.06249 13.9198 9.03021 13.8337 9.00506 13.6449C8.95976 13.305 8.95841 12.8183 8.95841 12.0832C8.95841 11.3481 8.95976 10.8614 9.00506 10.5214C9.03021 10.3327 9.06249 10.2465 9.081 10.2109ZM9.04835 13.9568C9.04886 13.9561 9.05376 13.9558 9.06154 13.9579C9.05172 13.9585 9.04783 13.9574 9.04835 13.9568ZM9.09181 13.9733C9.09467 13.9757 9.09591 13.9774 9.09582 13.9776C9.09573 13.9778 9.0943 13.9766 9.09181 13.9733ZM9.09181 10.193C9.0943 10.1897 9.09573 10.1885 9.09582 10.1887C9.09591 10.189 9.09467 10.1906 9.09181 10.193Z" fill="#877EFF"/>
</g>
</svg>
